<svg width="430" height="430" viewBox="0 0 430 430" fill="none" xmlns="http://www.w3.org/2000/svg">
<path d="M8.22475 164.128C5.74591 163.464 5.19121 160.196 7.31202 158.751L97.1792 97.5215C98.695 96.4887 100.775 97.0459 101.571 98.6983L148.783 196.658C149.898 198.97 147.783 201.523 145.304 200.858L107.971 190.855C106.157 198.778 105.199 207.028 105.199 215.501C105.199 240.981 113.862 264.437 128.403 283.085L71.7647 315.785C51.872 287.386 40.1991 252.807 40.1991 215.501C40.1991 201.21 41.9123 187.318 45.1445 174.021L8.22475 164.128Z" fill="#4BB3FD"/>
<path d="M266.394 8.22475C267.058 5.74591 270.326 5.19121 271.771 7.31202L333 97.1792C334.033 98.695 333.476 100.775 331.823 101.571L233.863 148.783C231.552 149.898 228.999 147.783 229.663 145.304L239.667 107.971C231.743 106.157 223.494 105.199 215.02 105.199C189.541 105.199 166.085 113.862 147.436 128.403L114.736 71.7647C143.136 51.872 177.715 40.1991 215.02 40.1991C229.312 40.1991 243.204 41.9123 256.501 45.1445L266.394 8.22475Z" fill="#4BB3FD"/>
<path d="M422.864 266.394C425.343 267.058 425.897 270.326 423.777 271.771L333.909 333C332.394 334.033 330.314 333.476 329.518 331.823L282.305 233.863C281.191 231.552 283.305 228.999 285.784 229.663L323.118 239.667C324.931 231.743 325.889 223.494 325.889 215.02C325.889 189.541 317.227 166.085 302.685 147.436L359.324 114.736C379.216 143.136 390.889 177.715 390.889 215.02C390.889 229.312 389.176 243.204 385.944 256.501L422.864 266.394Z" fill="#4BB3FD"/>
<path d="M163.606 421.864C162.942 424.343 159.674 424.897 158.229 422.777L97 332.909C95.9672 331.394 96.5244 329.314 98.1768 328.518L196.137 281.305C198.448 280.191 201.001 282.305 200.337 284.784L190.333 322.118C198.257 323.931 206.506 324.889 214.98 324.889C240.459 324.889 263.915 316.227 282.564 301.685L315.264 358.324C286.864 378.216 252.285 389.889 214.98 389.889C200.688 389.889 186.796 388.176 173.499 384.944L163.606 421.864Z" fill="#4BB3FD"/>
<g style="mix-blend-mode:multiply" opacity="0.5">
<path d="M266.394 8.22475C267.058 5.74591 270.326 5.19121 271.771 7.31202L333 97.1792C334.033 98.695 333.476 100.775 331.823 101.571L233.863 148.783C231.552 149.898 228.999 147.783 229.663 145.304L239.667 107.971C231.743 106.157 223.494 105.199 215.02 105.199C189.541 105.199 166.085 113.862 147.436 128.403L114.736 71.7647C143.136 51.872 177.715 40.1991 215.02 40.1991C229.312 40.1991 243.204 41.9123 256.501 45.1445L266.394 8.22475Z" fill="#4BB3FD"/>
</g>
<g style="mix-blend-mode:multiply" opacity="0.5">
<path d="M163.606 421.864C162.942 424.343 159.674 424.897 158.229 422.777L97 332.909C95.9672 331.394 96.5244 329.314 98.1768 328.518L196.137 281.305C198.448 280.191 201.001 282.305 200.337 284.784L190.333 322.118C198.257 323.931 206.506 324.889 214.98 324.889C240.459 324.889 263.915 316.227 282.564 301.685L315.264 358.324C286.864 378.216 252.285 389.889 214.98 389.889C200.688 389.889 186.796 388.176 173.499 384.944L163.606 421.864Z" fill="#4BB3FD"/>
</g>
</svg>
